<svg height="512" viewBox="0 0 64 64" width="512" xmlns="http://www.w3.org/2000/svg"><g id="Game_Controller-Computer-Gaming-Gamepad-Game" data-name="Game Controller-Computer-Gaming-Gamepad-Game"><path d="m54 9v22h-44v-22a2.006 2.006 0 0 1 2-2h40a2.006 2.006 0 0 1 2 2z" fill="#5aaae7"/><path d="m55 57v3a1 1 0 0 1 -1 1h-44a1 1 0 0 1 -1-1v-3z" fill="#acabb1"/><path d="m55 57h-46l6-6h34z" fill="#c6c5ca"/><path d="m54 31v4a2.006 2.006 0 0 1 -2 2h-40a2.006 2.006 0 0 1 -2-2v-4z" fill="#c6c5ca"/><path d="m42 43v4h-20v-4h5 10z" fill="#acabb1"/><path d="m27 37h10v6h-10z" fill="#c6c5ca"/><path d="m27 37h10v2h-10z" fill="#acabb1"/><path d="m47 12v11a2.006 2.006 0 0 1 -2 2h-2.25a2 2 0 0 1 -1.98-1.74l-.72-5.39a1 1 0 0 0 -.99-.87h-10.12a1 1 0 0 0 -.99.87l-.72 5.39a2 2 0 0 1 -1.98 1.74h-2.25a2.006 2.006 0 0 1 -2-2v-11a6.844 6.844 0 0 1 .68-3 6.96 6.96 0 0 1 1.43-2h21.78a6.96 6.96 0 0 1 1.43 2 6.844 6.844 0 0 1 .68 3z" fill="#3d9ae2"/><path d="m45 10v11a2.006 2.006 0 0 1 -2 2h-2.25a2 2 0 0 1 -1.98-1.74l-.72-5.39a1 1 0 0 0 -.99-.87h-10.12a1 1 0 0 0 -.99.87l-.72 5.39a2 2 0 0 1 -1.98 1.74h-2.25a2.006 2.006 0 0 1 -2-2v-11a6.844 6.844 0 0 1 .68-3 6.97 6.97 0 0 1 6.32-4h12a6.97 6.97 0 0 1 6.32 4 6.844 6.844 0 0 1 .68 3z" fill="#ffa733"/><path d="m55.707 56.293-6-6a1 1 0 0 0 -.707-.293h-30v-2a3 3 0 0 0 -3-3h-6a1 1 0 0 1 0-2h6a3 3 0 0 0 3-3v-2h7v4h-4a1 1 0 0 0 -1 1v4a1 1 0 0 0 1 1h20a1 1 0 0 0 1-1v-4a1 1 0 0 0 -1-1h-4v-4h14a3 3 0 0 0 3-3v-26a3 3 0 0 0 -3-3h-5v2h5a1 1 0 0 1 1 1v21h-42v-21a1 1 0 0 1 1-1h5v-2h-5a3 3 0 0 0 -3 3v26a3 3 0 0 0 3 3h5v2a1 1 0 0 1 -1 1h-6a3 3 0 0 0 0 6h6a1 1 0 0 1 1 1v2h-2a1 1 0 0 0 -.707.293l-6 6a1 1 0 0 0 -.293.707v3a2 2 0 0 0 2 2h44a2 2 0 0 0 2-2v-3a1 1 0 0 0 -.293-.707zm-14.707-10.293h-18v-2h18zm-5-4h-8v-4h8zm-25-7v-3h42v3a1 1 0 0 1 -1 1h-40a1 1 0 0 1 -1-1zm4.414 17h33.172l4 4h-41.172zm-5.414 8v-2h44v2z"/><path d="m16 53h2v2h-2z"/><path d="m20 53h2v2h-2z"/><path d="m42 53h2v2h-2z"/><path d="m24 53h16v2h-16z"/><path d="m46 53h2v2h-2z"/><path d="m47 33h2v2h-2z"/><path d="m21 24h2.249a3.011 3.011 0 0 0 2.974-2.6l.719-5.4h10.116l.719 5.4a3.011 3.011 0 0 0 2.974 2.6h2.249a3 3 0 0 0 3-3v-11a8.009 8.009 0 0 0 -8-8h-12a8.009 8.009 0 0 0 -8 8v11a3 3 0 0 0 3 3zm-1-14a6.006 6.006 0 0 1 6-6h12a6.006 6.006 0 0 1 6 6v11a1 1 0 0 1 -1 1h-2.249a1 1 0 0 1 -.991-.868l-.72-5.4a2.006 2.006 0 0 0 -1.982-1.732h-10.116a2.006 2.006 0 0 0 -1.982 1.735l-.72 5.4a1 1 0 0 1 -.991.868h-2.249a1 1 0 0 1 -1-1z"/><path d="m24 12h2v-2h2v-2h-2v-2h-2v2h-2v2h2z"/><path d="m38 6h2v2h-2z"/><path d="m40 8h2v2h-2z"/><path d="m38 10h2v2h-2z"/><path d="m36 8h2v2h-2z"/><path d="m29 6h2v2h-2z"/><path d="m33 6h2v2h-2z"/></g></svg>